<?xml version="1.0" encoding="utf-8"?>
<svg viewBox="0 0 500 500" xmlns="http://www.w3.org/2000/svg">
  <path stroke-width="0" d="M 247.043 261.285 C 251.791 267.71 253.081 270.444 250.626 279.197 C 245.688 296.801 206.109 355.139 191.517 365.771 C 184.294 371.031 178.652 369.304 173.605 368.158 C 169.082 367.131 164.774 364.44 162.262 360.396 C 159.309 355.643 156.653 349.001 158.68 340.097 C 161.994 325.524 197.074 294.772 194.503 279.197 C 192.274 265.696 162.157 258.594 155.096 249.344 C 152.666 246.159 151.06 243.04 150.121 240.013 C 131.365 240.209 113.949 239.884 102.913 238.954 C 101.319 238.821 99.792 238.671 98.328 238.509 C 97.797 242.611 96.427 246.514 92.526 250.658 C 85.807 257.793 57.442 261.867 55.508 272.748 C 53.247 285.461 86.198 313.857 91.331 325.288 C 94.08 331.414 94.656 333.914 93.719 338.426 C 92.638 343.623 87.675 351.319 83.569 354.544 C 80.105 357.27 76.063 358.695 71.629 358.128 C 66.153 357.428 60.256 354.97 53.12 347.977 C 40.849 335.958 14.547 295.325 7.743 279.915 C 3.914 271.241 3.086 266.417 4.16 260.808 C 5.165 255.568 7.085 252.311 13.117 247.074 C 20.576 240.6 40.326 227.189 56.622 219.077 C 55.025 215.314 54.025 210.907 54.553 207.311 C 55.372 201.73 59.119 195.845 64.703 191.19 C 71.848 185.236 86.254 179.39 96.944 176.861 C 106.945 174.495 122.537 175.774 126.797 175.667 C 128.346 175.629 128.405 175.854 129.183 175.667 C 130 175.474 129.479 174.774 131.572 174.473 C 138.09 173.535 173.24 173.408 200.624 174.374 C 202.837 169.588 205.883 165.157 209.667 162.77 C 216.576 158.417 231.129 159.443 238.325 160.383 C 243.543 161.063 246.608 165.46 250.269 165.159 C 253.74 164.872 254.926 160.132 259.821 159.188 C 267.713 157.665 286.954 159.263 296.837 162.77 C 299.586 163.746 302.315 165.148 304.854 166.73 C 310.228 164.256 316.282 161.885 321.855 159.925 C 334.469 155.488 352.917 151.172 364.401 149.714 C 373.007 148.621 387.462 147.311 393.162 149.033 C 397.989 150.492 396.858 152.225 399.884 155.756 C 401.41 157.537 399.997 161.494 401.108 163.659 C 408.367 161.082 416.477 158.674 423.114 156.692 C 435.771 152.911 453.022 148.923 461.406 148.182 C 466.306 147.75 468.762 147.989 471.617 149.033 C 474.191 149.975 475.917 150.486 477.999 153.713 C 481.84 159.668 486.504 176.965 489.061 188.601 C 491.239 198.515 493.901 211.724 493.626 219.599 C 493.917 220.728 494.189 221.884 494.464 223.073 C 495.976 229.617 497.172 237.877 495.657 244.567 C 494.156 251.205 490.031 259.473 485.508 263.077 C 481.589 266.199 475.843 267.047 471.18 266.658 C 466.487 266.268 461.116 264.724 457.448 260.688 C 452.813 255.591 449.737 216.363 448.575 209.063 C 447.245 200.707 420.282 208.741 408.18 213.293 C 408.183 213.335 408.866 218.145 408.869 218.187 C 409.308 225.526 410.583 246.755 408.01 252.448 C 405.928 257.056 402.839 260.311 399.054 262.598 C 395.134 264.968 389.39 266.571 384.725 266.181 C 380.035 265.79 374.248 263.976 370.992 260.209 C 367.294 255.934 365.615 247.183 365.023 240.506 C 364.695 236.832 364.864 232.764 365.409 228.899 C 322.982 229.241 278.266 231.372 265.793 229.641 C 265.138 229.55 264.554 229.453 264.027 229.354 C 252.706 232.548 237.163 234.798 221.13 236.567 C 218.595 236.845 215.856 237.111 212.951 237.359 C 226.15 245.176 242.249 254.797 247.043 261.285 Z" style="stroke-width: 2px; fill: rgb(47, 56, 59);"/>
  <circle style="fill: rgb(34, 40, 42);" cx="104.363" cy="204.679" r="71.888"/>
</svg>